<?xml version="1.0" standalone="no"?>
<!DOCTYPE svg PUBLIC "-//W3C//DTD SVG 20010904//EN"
 "http://www.w3.org/TR/2001/REC-SVG-20010904/DTD/svg10.dtd">
<svg version="1.0" xmlns="http://www.w3.org/2000/svg"
 width="300.000000pt" height="300.000000pt" viewBox="0 0 300.000000 300.000000"
 preserveAspectRatio="xMidYMid meet">
<metadata>
Created by potrace 1.14, written by Peter Selinger 2001-2017
</metadata>
<g transform="translate(0.000000,300.000000) scale(0.100000,-0.100000)"
fill="#000000" stroke="none">
<path d="M1350 2958 c-55 -6 -141 -21 -200 -33 -60 -13 -201 -65 -285 -105
-454 -220 -767 -661 -822 -1160 -15 -132 -7 -318 17 -435 6 -28 13 -63 16 -80
31 -160 165 -426 286 -567 29 -34 46 -63 42 -69 -4 -7 -3 -9 3 -6 5 3 39 -22
74 -56 76 -73 117 -106 213 -169 39 -26 76 -51 81 -56 16 -13 268 -119 300
-126 32 -7 39 -9 70 -19 23 -7 62 -15 120 -23 22 -4 45 -9 50 -13 11 -7 317
-6 350 2 11 2 26 -1 34 -7 11 -8 13 -8 7 2 -5 8 1 12 18 12 14 0 27 -1 29 -2
1 -1 12 4 25 11 17 9 22 9 22 -1 0 -9 3 -9 9 1 6 9 26 15 49 15 22 1 38 3 37
7 -3 4 57 26 95 35 12 2 69 27 137 60 40 19 77 34 82 34 5 0 11 3 13 8 2 4 29
23 61 42 33 19 93 63 134 97 42 35 79 60 84 57 5 -3 6 2 3 10 -3 9 2 17 15 21
12 3 21 12 21 20 0 13 28 30 43 26 5 -1 6 3 2 9 -9 14 22 43 36 34 8 -4 9 -3
5 5 -9 14 71 124 84 116 6 -3 7 0 4 8 -3 8 1 21 8 28 8 8 17 21 21 29 4 8 18
33 32 55 26 42 33 57 70 140 44 99 85 237 100 335 2 19 8 60 13 90 9 63 8 259
-2 339 -4 29 -14 83 -22 120 -8 36 -17 76 -19 88 -12 51 -59 174 -100 258
-140 287 -374 523 -660 664 -113 56 -239 104 -302 116 -27 5 -51 9 -103 20
-70 14 -105 17 -215 19 -66 1 -149 -1 -185 -6z"/>
</g>
</svg>
